<svg width="24" height="24" viewBox="0 0 24 24" fill="none" xmlns="http://www.w3.org/2000/svg">
<mask id="mask0" mask-type="alpha" maskUnits="userSpaceOnUse" x="0" y="0" width="24" height="24">
<path fill-rule="evenodd" clip-rule="evenodd" d="M0.726562 0.491211H23.6357V23.3799H0.726562V0.491211Z" fill="white"/>
</mask>
<g mask="url(#mask0)">
<path fill-rule="evenodd" clip-rule="evenodd" d="M6.31787 11.9121C6.31787 8.65264 8.94296 6.05762 12.24 6.05762C15.4743 6.06012 18.0693 8.69777 18.0693 11.9823C18.0668 15.1991 15.4342 17.8117 12.1949 17.8117C8.92039 17.8117 6.31787 15.1991 6.31787 11.9121ZM18.2951 4.45312C19.0748 4.45312 19.6716 5.04986 19.6716 5.82711C19.6716 6.59433 19.0473 7.22115 18.2926 7.21112C17.5404 7.20109 16.9236 6.58932 16.9161 5.83965C16.9086 5.07744 17.5279 4.45563 18.2951 4.45312ZM18.5532 23.099C20.8423 22.6602 22.4018 21.3088 23.1665 19.0823C23.5577 17.934 23.6003 16.738 23.6103 15.5421C23.6379 13.2805 23.6479 11.0164 23.6153 8.74987C23.6003 7.6918 23.5552 6.6212 23.3571 5.58569C22.9258 3.29405 21.5769 1.73202 19.353 0.964796C18.2047 0.568648 17.0087 0.528531 15.8153 0.513488C13.5336 0.488415 11.252 0.473371 8.97043 0.51098C7.9224 0.526024 6.86433 0.588706 5.83134 0.769229C4.09131 1.06759 2.72234 1.99528 1.79466 3.51218C1.08761 4.67054 0.846911 5.96429 0.811809 7.29816C0.764171 8.84264 0.751635 10.3896 0.726562 11.9366H0.75665C0.75665 12.9972 0.724055 14.0578 0.764171 15.1183C0.806795 16.1764 0.82936 17.247 1.02743 18.2825C1.45868 20.5716 2.80759 22.1362 5.03153 22.9059C6.17985 23.2996 7.37832 23.3422 8.56927 23.3547C10.8434 23.3798 13.1174 23.3923 15.389 23.3597C16.4446 23.3422 17.5177 23.2996 18.5532 23.099Z" fill="white"/>
</g>
</svg>
