<svg width="24" height="20" viewBox="0 0 24 20" fill="none" xmlns="http://www.w3.org/2000/svg">
<mask id="mask0" mask-type="alpha" maskUnits="userSpaceOnUse" x="0" y="0" width="24" height="20">
<path fill-rule="evenodd" clip-rule="evenodd" d="M0.931641 0.145508H23.6903V19.3107H0.931641V0.145508Z" fill="white"/>
</mask>
<g mask="url(#mask0)">
<path fill-rule="evenodd" clip-rule="evenodd" d="M19.5281 3.92751C16.0215 7.12331 9.86919 12.7301 9.86919 12.7301L9.51549 16.0907L7.92432 10.7839C7.92432 10.7839 15.1386 6.12768 19.2019 3.50492C19.3186 3.43018 19.4741 3.45605 19.5585 3.56625C19.6448 3.67645 19.6296 3.8336 19.5281 3.92751ZM23.4265 0.327719C23.2189 0.148525 22.9296 0.0967786 22.6708 0.193563C18.6957 1.68078 6.44992 6.32355 1.44597 8.19503C1.12831 8.31386 0.921587 8.62241 0.932018 8.96068C0.943397 9.2999 1.16908 9.59409 1.49339 9.69279C3.73885 10.3712 6.68508 11.3151 6.68508 11.3151C6.68508 11.3151 8.06195 15.5171 8.77978 17.654C8.86986 17.9223 9.07753 18.1331 9.35158 18.206C9.62467 18.2778 9.91674 18.2021 10.1206 18.0076C11.2737 16.9075 13.0564 15.2066 13.0564 15.2066C13.0564 15.2066 16.4436 17.7163 18.3638 19.0991C18.6701 19.3175 19.0636 19.3722 19.4145 19.238C19.7653 19.1029 20.0223 18.8001 20.101 18.4331C20.925 14.5195 22.924 4.61401 23.674 1.05408C23.7309 0.785767 23.6361 0.506914 23.4265 0.327719Z" fill="white"/>
</g>
</svg>
