<svg width="27" height="16" viewBox="0 0 27 16" fill="none" xmlns="http://www.w3.org/2000/svg">
<mask id="mask0" mask-type="alpha" maskUnits="userSpaceOnUse" x="0" y="0" width="27" height="16">
<path fill-rule="evenodd" clip-rule="evenodd" d="M0.828125 0.122559H26.1863V15.2416H0.828125V0.122559Z" fill="white"/>
</mask>
<g mask="url(#mask0)">
<path fill-rule="evenodd" clip-rule="evenodd" d="M25.9695 13.6562C25.6159 12.968 25.1322 12.3677 24.6447 11.7732C23.8705 10.8269 23.0159 9.96087 22.1537 9.1006C21.477 8.42767 21.4732 8.17532 21.997 7.39343C22.6355 6.44139 23.2874 5.49317 23.8934 4.52201C24.551 3.46674 25.2488 2.42485 25.6044 1.21282C25.809 0.5093 25.5451 0.161366 24.813 0.151807C23.8743 0.134602 22.9375 0.142249 21.997 0.149896C21.4273 0.155631 21.0163 0.407979 20.783 0.950909C20.5498 1.49002 20.3051 2.02339 20.0355 2.54529C19.2288 4.10335 18.3571 5.61743 17.1068 6.87535C16.9003 7.08564 16.6805 7.28637 16.4014 7.39916C16.042 7.54445 15.8011 7.4221 15.7055 7.04549C15.6653 6.88299 15.6577 6.71094 15.6577 6.54462C15.6539 5.6614 15.6539 4.7801 15.6539 3.89879C15.6539 2.94484 15.6615 1.9928 15.65 1.04076C15.6405 0.446213 15.4187 0.159454 14.9236 0.155631C13.4382 0.136513 11.9528 0.13269 10.4712 0.155631C9.89002 0.161366 9.62811 0.711943 9.93017 1.20134C9.98178 1.28546 10.041 1.36384 10.106 1.43649C10.6796 2.09412 10.9013 2.86646 10.8956 3.72673C10.8841 4.93112 10.8918 6.13551 10.8879 7.3399C10.8879 7.57695 10.8918 7.81592 10.8707 8.05297C10.8172 8.63414 10.4578 8.81001 9.97605 8.47929C9.76767 8.33782 9.58223 8.16194 9.41209 7.97841C8.35873 6.81226 7.62653 5.44155 6.94978 4.04217C6.50244 3.12263 6.12201 2.17633 5.78937 1.20708C5.63834 0.773118 5.47584 0.283716 4.93291 0.214894C3.79352 0.0734265 2.64649 0.119308 1.50136 0.184307C0.981375 0.220629 0.784467 0.532241 0.836084 1.05605C0.885789 1.56075 1.01961 2.04633 1.18019 2.52617C2.23164 5.66523 3.88338 8.48502 5.9251 11.0716C7.19257 12.6832 8.78504 13.9067 10.714 14.6503C11.9872 15.1417 13.3024 15.3558 14.6674 15.1608C15.4226 15.0499 15.6539 14.788 15.6577 14.0252C15.6615 13.186 15.652 12.3448 15.6615 11.5055C15.6711 10.8173 16.0018 10.5707 16.6709 10.7447C17.1699 10.8747 17.5809 11.1653 17.9843 11.473C19.1122 12.3429 20.026 13.4249 20.9799 14.4687C21.4617 14.9944 22.0161 15.2812 22.754 15.2372C23.5225 15.1952 24.2949 15.2315 25.0634 15.2258C25.2316 15.2258 25.4018 15.2105 25.5623 15.1761C26.0173 15.0786 26.199 14.832 26.1856 14.375C26.1779 14.1131 26.0843 13.8818 25.9695 13.6562Z" fill="white"/>
</g>
</svg>
