<svg width="23" height="17" viewBox="0 0 23 17" fill="none" xmlns="http://www.w3.org/2000/svg">
<mask id="mask0" mask-type="alpha" maskUnits="userSpaceOnUse" x="0" y="0" width="23" height="17">
<path fill-rule="evenodd" clip-rule="evenodd" d="M0.000976562 0.724609H22.7596V16.8453H0.000976562V0.724609Z" fill="white"/>
</mask>
<g mask="url(#mask0)">
<path fill-rule="evenodd" clip-rule="evenodd" d="M9.10632 12.2394V5.33057L15.0031 8.785L9.10632 12.2394ZM22.2574 3.24901C21.9917 2.25608 21.2248 1.48045 20.2431 1.21177C18.477 0.724609 11.3688 0.724609 11.3688 0.724609C11.3688 0.724609 4.26055 0.739372 2.49444 1.22654C1.51272 1.49521 0.745846 2.27084 0.480199 3.26377C-0.0540126 6.43772 -0.261275 11.2739 0.494795 14.3209C0.760442 15.3138 1.52731 16.0895 2.50904 16.358C4.27515 16.8453 11.3834 16.8453 11.3834 16.8453C11.3834 16.8453 18.4916 16.8453 20.2577 16.358C21.2394 16.0895 22.0063 15.3138 22.272 14.3209C22.8354 11.1424 23.0091 6.30928 22.2574 3.24901Z" fill="white"/>
</g>
</svg>
