<svg width="123" height="41" viewBox="0 0 123 41" fill="none" xmlns="http://www.w3.org/2000/svg">
<path d="M0 26.5L27.5 0L23 14.5H40L8 41L14.5 26.5H0Z" fill="#C5FA2D"/>
<path d="M71.4481 20.8281H75.6301V30.3141C74.4061 31.2888 72.9781 32.0368 71.3461 32.5581C69.7141 33.0794 68.0368 33.3401 66.3141 33.3401C63.8888 33.3401 61.7014 32.8188 59.7521 31.7761C57.8028 30.7108 56.2728 29.2488 55.1621 27.3901C54.0514 25.5314 53.4961 23.4348 53.4961 21.1001C53.4961 18.7654 54.0514 16.6688 55.1621 14.8101C56.2728 12.9514 57.8028 11.5008 59.7521 10.4581C61.7241 9.39278 63.9341 8.86011 66.3821 8.86011C68.3768 8.86011 70.1901 9.18878 71.8221 9.84611C73.4541 10.5034 74.8254 11.4668 75.9361 12.7361L73.1481 15.4561C71.3348 13.6428 69.1474 12.7361 66.5861 12.7361C64.9088 12.7361 63.4128 13.0874 62.0981 13.7901C60.8061 14.4928 59.7861 15.4788 59.0381 16.7481C58.3128 18.0174 57.9501 19.4681 57.9501 21.1001C57.9501 22.6868 58.3128 24.1148 59.0381 25.3841C59.7861 26.6534 60.8061 27.6508 62.0981 28.3761C63.4128 29.1014 64.8974 29.4641 66.5521 29.4641C68.4108 29.4641 70.0428 29.0561 71.4481 28.2401V20.8281ZM86.4598 9.20011H90.8798V33.0001H86.4598V9.20011ZM117.311 33.0001L110.851 23.9561L104.459 33.0001H99.4272L108.267 20.8621L99.9032 9.20011H104.901L110.987 17.6661L117.005 9.20011H121.799L113.469 20.6921L122.411 33.0001H117.311Z" fill="white"/>
</svg>
